<svg xmlns="http://www.w3.org/2000/svg" viewBox="0 0 259 63.42"><defs><style>.cls-1{fill:#005899;}.cls-2{fill:#58afe2;}</style></defs><title>Asset 2</title><g id="Layer_2" data-name="Layer 2"><g id="Layer_1-2" data-name="Layer 1"><polygon class="cls-1" points="223.13 32.36 230.18 24.48 230.18 42.36 223.13 50.17 223.13 38.24 223.13 32.36"/><polygon class="cls-1" points="221.56 50.17 214.5 42.36 214.5 36.91 214.5 24.48 221.56 32.36 221.56 38.16 221.56 50.17"/><path class="cls-1" d="M222.3,0c-18.86,0-32.42,13.56-32.42,32.42,0,15.47,8.52,26.43,23.31,31V23.62l-7.88-8.74,0,35.1c-5-4.41-7.42-10.94-7.42-17.56a24.45,24.45,0,1,1,48.9,0A26.22,26.22,0,0,1,239.52,50l-.07-35-7.76,8.64V63.42c14-4.26,23.89-15.59,23.89-31C255.58,13.56,241.16,0,222.3,0"/><path class="cls-1" d="M66.88,12.6H88.64l-1.93,5H72.11v6.36H82.3v5H72.11V41H66.88Z"/><path class="cls-1" d="M92.69,12.6h21.76l-1.93,5H97.93v6.36h10.18v5H97.93V41H92.69Z"/><path class="cls-1" d="M119,12.6h5.24V41H119Z"/><path class="cls-1" d="M1.07,12l12.6,12.72L26.26,12V41H21V23.43l-7.36,7.63L6.31,23.43V41H1.07Z"/><path class="cls-1" d="M46.53,12.07c8.49,0,15.22,6.46,15.22,14.76S55,41.59,46.53,41.59,31.32,35.14,31.32,26.83,38.05,12.07,46.53,12.07Zm0,24.56a9.8,9.8,0,1,0-9.7-9.8A9.86,9.86,0,0,0,46.53,36.63Z"/><path class="cls-1" d="M138.31,17.57H130v-5h23.11l-1.92,5h-7.65V41h-5.23Z"/><path class="cls-1" d="M165.91,17.57H157.6v-5h23.11l-1.93,5h-7.64V41h-5.23Z"/><path class="cls-2" d="M19.85,48h1.28L26,59.43H23.69l-.88-2.14H18l-.87,2.14H14.87Zm2.22,7.36-1.65-4.08L18.75,55.4Z"/><path class="cls-2" d="M11,57.31a6.13,6.13,0,0,1-4.86,2.34,5.94,5.94,0,1,1,0-11.87A6.1,6.1,0,0,1,11,50.12L9.23,51.43a3.67,3.67,0,0,0-3.11-1.66,3.94,3.94,0,0,0,0,7.88,3.87,3.87,0,0,0,3.15-1.58Z"/><path class="cls-2" d="M109,57.31a6.1,6.1,0,0,1-4.86,2.34,5.94,5.94,0,1,1,0-11.87A6.07,6.07,0,0,1,109,50.12l-1.74,1.31a3.68,3.68,0,0,0-3.12-1.66,3.94,3.94,0,0,0,0,7.88,3.9,3.9,0,0,0,3.16-1.58Z"/><path class="cls-2" d="M55.72,57.31a6.11,6.11,0,0,1-4.86,2.34,5.94,5.94,0,1,1,0-11.87,6.08,6.08,0,0,1,4.86,2.34L54,51.43a3.7,3.7,0,0,0-3.12-1.66,3.94,3.94,0,0,0,0,7.88A3.9,3.9,0,0,0,54,56.07Z"/><path class="cls-2" d="M61.06,48H69.8L69,50H63.16v2.56h4.1v2h-4.1v2.85H69.8l-.77,2h-8Z"/><path class="cls-2" d="M32.39,52.45v7h-2.1V47.8L37.64,55V48h2.11V59.67Z"/><path class="cls-2" d="M130.28,52.45v7h-2.1V47.8L135.53,55V48h2.1V59.67Z"/><path class="cls-2" d="M75.08,48h5.43a3.79,3.79,0,0,1,4.1,3.9,3.64,3.64,0,0,1-2.67,3.43l2.85,4.06H82.14l-2.38-3.59H77.18v3.59h-2.1Zm2.1,5.8h3.16a1.92,1.92,0,1,0,0-3.81H77.18Z"/><path class="cls-2" d="M156.57,48h8.75l-.78,2h-5.87v2.56h4.1v2h-4.1v2.85h6.65l-.78,2h-8Z"/><path class="cls-2" d="M114.29,48H123l-.77,2H116.4v2.56h4.09v2H116.4v2.85H123l-.77,2h-8Z"/><path class="cls-2" d="M170.59,48H176a3.79,3.79,0,0,1,4.1,3.9,3.63,3.63,0,0,1-2.66,3.43l2.84,4.06h-2.65l-2.38-3.59H172.7v3.59h-2.11Zm2.11,5.8h3.16a1.92,1.92,0,1,0,0-3.81H172.7Z"/><path class="cls-2" d="M145.83,50H142.5V48h9.29L151,50h-3.07v9.4h-2.11Z"/><path class="cls-1" d="M255,56.93h-1.29v1.65h1.21c.69,0,1-.26,1-.82s-.34-.83-.94-.83m.47,2.21,1.08,2.08h-.75l-1-2h-1v2H253V56.36h2a1.37,1.37,0,0,1,1.56,1.4,1.35,1.35,0,0,1-1.12,1.38M254.6,55a3.83,3.83,0,1,0,3.8,3.83A3.68,3.68,0,0,0,254.6,55m0,8.22a4.39,4.39,0,1,1,4.4-4.39,4.24,4.24,0,0,1-4.4,4.39"/></g></g></svg>